# xmcd
#
# Track frame offsets:
#	150
#	26572
#	54893
#	75721
#	93869
#	120289
#	136048
#	154919
#	176237
#	184878
#
# Disc length: 2803 seconds
# Revision: 0
# Processed by: cddbd v1.5.2PL0 Copyright (c) Steve Scherf et al.
# Submitted via: dBpowerAMP V12.0
#
DISCID=730af10a
DTITLE=Various Artist - Out of the Dark
DYEAR=2007
DGENRE=Metal
TTITLE0=Dimmu Borgir - The Ancestal Fever
TTITLE1=Immortal - Tyrants
TTITLE2=Nile - As He Creates, So He Destroys
TTITLE3=Exodus - Purge the World
TTITLE4=Bleed the Sky - The Martyr
TTITLE5=Meshuggah - Futile Breed Machine (Campfire Version)
TTITLE6=Epica - Replica
TTITLE7=All Shall Perish - Prisoner of War
TTITLE8=Agnostic Front - All Is Not Forgotten
TTITLE9=Threat Signal - Counterbalance
EXTD=
EXTT0=
EXTT1=
EXTT2=
EXTT3=
EXTT4=
EXTT5=
EXTT6=
EXTT7=
EXTT8=
EXTT9=
PLAYORDER=
